<svg width="94" height="94" viewBox="0 0 94 94" fill="none" xmlns="http://www.w3.org/2000/svg">
<path d="M73.5213 35.0672C75.1899 33.3986 75.1899 30.6933 73.5213 29.0247C71.8527 27.3561 69.1473 27.3561 67.4787 29.0247L38.4545 58.0489L24.3849 43.9792C22.7163 42.3106 20.011 42.3106 18.3424 43.9792C16.6738 45.6478 16.6738 48.3532 18.3424 50.0218L35.4333 67.1127C37.1019 68.7813 39.8072 68.7813 41.4758 67.1127L73.5213 35.0672Z" fill="#FF6B00"/>
<path fill-rule="evenodd" clip-rule="evenodd" d="M47 0.000488281C21.0426 0.000488281 0 21.0431 0 47.0005C0 72.9579 21.0426 94.0005 47 94.0005C72.9574 94.0005 94 72.9579 94 47.0005C94 21.0431 72.9574 0.000488281 47 0.000488281ZM8.54545 47.0005C8.54545 25.7626 25.7621 8.54594 47 8.54594C68.2379 8.54594 85.4546 25.7626 85.4546 47.0005C85.4546 68.2383 68.2379 85.455 47 85.455C25.7621 85.455 8.54545 68.2383 8.54545 47.0005Z" fill="#FF6B00"/>
</svg>
